<svg width="1367" height="392" viewBox="0 0 1367 392" xmlns="http://www.w3.org/2000/svg"><g fill="none" fill-rule="evenodd"><rect x="0" y="332" width="1367" height="60" fill="#437D51"/><path d="M20 98 L67 362 L-27 362Z" fill="#4F8F5E"/><path d="M69 98 L135 369 L3 369Z" fill="#4F8F5E"/><path d="M88 183 L128 371 L48 371Z" fill="#4F8F5E"/><rect x="130" y="265" width="6" height="89" fill="#437D51"/><path d="M184.6 183.0Q188.8 194.7 180.5 214.7Q172.2 234.8 164.6 245.3Q156.9 255.8 139.0 252.1Q121.2 248.3 106.6 244.9Q92.1 241.4 84.8 221.3Q77.5 201.2 85.4 185.2Q93.2 169.2 109.0 161.1Q124.8 153.1 138.2 151.4Q151.7 149.7 166.1 160.5Q180.5 171.3 184.6 183.0Z" fill="#4F8F5E"/><path d="M176 88 L225 364 L126 364Z" fill="#4F8F5E"/><rect x="194" y="296" width="6" height="69" fill="#437D51"/><path d="M228.8 234.3Q234.2 246.3 231.1 256.4Q228.1 266.5 216.2 276.6Q204.3 286.8 194.7 283.9Q185.1 281.0 176.2 273.8Q167.2 266.5 160.8 257.9Q154.3 249.4 160.5 236.5Q166.6 223.7 176.6 215.7Q186.5 207.7 198.7 211.3Q210.9 214.8 217.2 218.6Q223.4 222.4 228.8 234.3Z" fill="#4F8F5E"/><path d="M226 155 L272 341 L180 341Z" fill="#4F8F5E"/><path d="M272 136 L326 356 L218 356Z" fill="#4F8F5E"/><rect x="297" y="264" width="6" height="90" fill="#437D51"/><path d="M347.9 185.9Q350.2 199.8 344.4 219.4Q338.5 239.0 329.5 241.8Q320.4 244.6 304.9 250.1Q289.4 255.5 272.2 241.9Q255.1 228.4 251.8 218.3Q248.6 208.1 255.1 185.8Q261.7 163.4 276.0 153.7Q290.2 143.9 299.9 144.8Q309.6 145.6 327.6 158.8Q345.6 171.9 347.9 185.9Z" fill="#4F8F5E"/><path d="M329 92 L378 357 L281 357Z" fill="#4F8F5E"/><path d="M387 47 L447 354 L328 354Z" fill="#4F8F5E"/><rect x="441" y="242" width="6" height="109" fill="#437D51"/><path d="M509.2 143.6Q514.2 158.4 507.5 183.3Q500.7 208.1 481.1 214.9Q461.4 221.6 445.0 222.1Q428.6 222.6 404.3 211.6Q380.1 200.5 380.4 180.0Q380.6 159.4 380.3 145.3Q380.0 131.2 406.5 119.0Q433.1 106.8 447.5 107.8Q462.0 108.9 483.1 118.8Q504.2 128.7 509.2 143.6Z" fill="#4F8F5E"/><rect x="464" y="281" width="6" height="84" fill="#437D51"/><path d="M516.4 201.3Q519.2 220.7 516.8 238.9Q514.5 257.1 501.3 264.0Q488.1 270.9 464.8 272.3Q441.4 273.6 431.9 264.6Q422.5 255.7 418.9 241.7Q415.4 227.8 417.4 209.2Q419.5 190.6 433.3 182.2Q447.1 173.8 462.5 169.5Q477.8 165.3 495.8 173.6Q513.7 181.9 516.4 201.3Z" fill="#4F8F5E"/><path d="M521 187 L552 349 L490 349Z" fill="#4F8F5E"/><rect x="542" y="244" width="6" height="113" fill="#437D51"/><path d="M612.0 140.6Q615.2 171.0 612.8 186.0Q610.4 200.9 590.2 218.4Q569.9 235.9 542.5 237.0Q515.2 238.2 499.5 217.3Q483.8 196.5 477.7 181.6Q471.6 166.6 481.7 141.5Q491.8 116.3 503.4 105.8Q515.0 95.3 540.3 95.3Q565.6 95.3 587.2 102.7Q608.9 110.1 612.0 140.6Z" fill="#4F8F5E"/><rect x="578" y="264" width="6" height="109" fill="#437D51"/><path d="M649.7 173.6Q661.7 195.4 650.2 218.4Q638.6 241.3 624.6 247.4Q610.6 253.5 588.0 254.9Q565.5 256.3 548.0 246.1Q530.5 235.9 522.1 206.6Q513.8 177.4 520.5 158.9Q527.2 140.4 541.0 125.9Q554.8 111.4 584.6 116.5Q614.3 121.6 626.0 136.7Q637.7 151.8 649.7 173.6Z" fill="#4F8F5E"/><rect x="609" y="240" width="6" height="116" fill="#437D51"/><path d="M686.3 128.1Q690.7 147.9 685.5 178.0Q680.3 208.2 663.6 222.9Q647.0 237.6 622.7 233.4Q598.5 229.2 571.7 216.7Q544.9 204.3 543.1 184.2Q541.3 164.1 549.7 136.4Q558.2 108.8 573.7 95.2Q589.3 81.5 612.0 81.9Q634.7 82.3 658.3 95.3Q681.9 108.3 686.3 128.1Z" fill="#4F8F5E"/><rect x="636" y="261" width="6" height="99" fill="#437D51"/><path d="M693.9 175.2Q694.9 187.7 686.9 206.5Q678.9 225.4 669.3 239.5Q659.7 253.7 637.3 246.1Q614.8 238.5 605.6 233.0Q596.4 227.6 585.5 205.1Q574.6 182.7 585.4 167.5Q596.3 152.4 604.5 142.5Q612.7 132.7 636.7 133.6Q660.8 134.6 676.8 148.6Q692.8 162.6 693.9 175.2Z" fill="#4F8F5E"/><rect x="654" y="245" width="6" height="106" fill="#437D51"/><path d="M711.2 150.7Q715.0 164.3 714.4 183.4Q713.8 202.6 697.7 217.3Q681.5 232.0 658.1 229.2Q634.7 226.3 620.5 215.4Q606.2 204.4 596.2 187.7Q586.1 170.9 599.8 151.4Q613.6 131.8 625.1 122.5Q636.7 113.1 652.4 108.0Q668.1 103.0 687.8 120.0Q707.4 137.0 711.2 150.7Z" fill="#4F8F5E"/><path d="M706 123 L757 372 L654 372Z" fill="#4F8F5E"/><rect x="758" y="233" width="6" height="111" fill="#437D51"/><path d="M829.5 131.0Q828.3 148.1 828.9 173.7Q829.5 199.2 804.3 216.5Q779.1 233.9 755.6 225.9Q732.0 217.9 720.9 208.3Q709.8 198.7 695.1 173.6Q680.3 148.4 689.1 130.3Q698.0 112.1 712.9 96.3Q727.8 80.4 761.4 80.1Q795.1 79.8 812.9 96.9Q830.8 113.9 829.5 131.0Z" fill="#4F8F5E"/><rect x="777" y="241" width="6" height="101" fill="#437D51"/><path d="M837.9 153.2Q846.4 177.4 841.4 191.3Q836.4 205.3 822.4 218.4Q808.4 231.5 782.4 227.2Q756.4 223.0 741.8 212.2Q727.2 201.4 720.5 187.7Q713.8 174.0 723.5 157.8Q733.2 141.5 744.9 128.5Q756.6 115.5 782.5 111.3Q808.5 107.2 818.9 118.1Q829.4 129.0 837.9 153.2Z" fill="#4F8F5E"/><path d="M815 13 L885 339 L745 339Z" fill="#4F8F5E"/><path d="M874 182 L918 363 L829 363Z" fill="#4F8F5E"/><path d="M910 70 L966 351 L854 351Z" fill="#4F8F5E"/><path d="M944 94 L993 347 L895 347Z" fill="#4F8F5E"/><rect x="998" y="260" width="6" height="88" fill="#437D51"/><path d="M1053.0 177.2Q1056.5 196.0 1051.9 215.8Q1047.3 235.6 1036.3 248.3Q1025.3 260.9 1002.1 257.0Q979.0 253.1 966.5 244.9Q954.0 236.7 948.0 218.4Q942.0 200.0 945.0 184.1Q948.1 168.3 968.7 151.5Q989.2 134.7 1008.5 137.6Q1027.8 140.5 1038.6 149.5Q1049.4 158.5 1053.0 177.2Z" fill="#4F8F5E"/><rect x="1016" y="281" width="6" height="72" fill="#437D51"/><path d="M1061.5 216.4Q1064.1 230.9 1061.0 242.8Q1057.9 254.8 1043.1 267.1Q1028.4 279.4 1019.3 275.5Q1010.2 271.6 995.4 265.2Q980.7 258.9 975.2 246.4Q969.8 233.8 976.2 217.2Q982.7 200.5 992.6 196.4Q1002.6 192.2 1014.4 190.6Q1026.3 189.1 1042.6 195.5Q1058.8 201.9 1061.5 216.4Z" fill="#4F8F5E"/><rect x="1037" y="287" width="6" height="80" fill="#437D51"/><path d="M1090.7 213.8Q1091.4 230.9 1084.5 246.0Q1077.7 261.1 1065.7 274.3Q1053.8 287.5 1041.7 285.6Q1029.6 283.6 1012.1 277.4Q994.6 271.2 992.9 251.0Q991.2 230.7 990.4 215.3Q989.6 199.8 1005.4 187.6Q1021.2 175.4 1041.5 174.7Q1061.8 173.9 1075.9 185.3Q1090.1 196.8 1090.7 213.8Z" fill="#4F8F5E"/><rect x="1092" y="263" width="6" height="93" fill="#437D51"/><path d="M1160.2 180.5Q1167.1 199.5 1156.1 220.0Q1145.1 240.5 1131.9 247.9Q1118.6 255.4 1094.9 259.6Q1071.3 263.7 1056.0 250.8Q1040.7 237.8 1038.8 220.1Q1036.8 202.5 1040.0 184.0Q1043.2 165.5 1057.5 151.2Q1071.7 136.9 1089.8 137.8Q1108.0 138.6 1130.6 150.0Q1153.3 161.5 1160.2 180.5Z" fill="#4F8F5E"/><path d="M1116 135 L1164 357 L1068 357Z" fill="#4F8F5E"/><rect x="1149" y="238" width="6" height="111" fill="#437D51"/><path d="M1216.1 138.1Q1224.7 165.8 1220.4 179.7Q1216.2 193.5 1193.6 216.5Q1171.1 239.4 1145.4 232.9Q1119.7 226.5 1103.4 213.3Q1087.1 200.1 1084.4 179.0Q1081.6 157.8 1085.0 139.7Q1088.4 121.7 1104.2 108.4Q1120.0 95.1 1149.1 93.2Q1178.3 91.4 1192.9 100.8Q1207.5 110.3 1216.1 138.1Z" fill="#4F8F5E"/><rect x="1172" y="267" width="6" height="94" fill="#437D51"/><path d="M1223.9 182.7Q1227.3 193.9 1223.1 210.1Q1219.0 226.4 1207.8 236.1Q1196.6 245.9 1180.4 247.4Q1164.2 248.9 1148.6 238.0Q1133.0 227.2 1126.7 212.2Q1120.4 197.2 1128.3 187.2Q1136.2 177.3 1144.3 166.3Q1152.4 155.3 1174.8 156.4Q1197.1 157.5 1208.8 164.4Q1220.5 171.4 1223.9 182.7Z" fill="#4F8F5E"/><path d="M1221 80 L1291 365 L1150 365Z" fill="#4F8F5E"/><path d="M1245 181 L1284 352 L1206 352Z" fill="#4F8F5E"/><rect x="1289" y="250" width="6" height="103" fill="#437D51"/><path d="M1352.1 159.7Q1355.8 170.8 1343.4 193.1Q1331.0 215.5 1324.2 222.2Q1317.3 229.0 1293.0 234.3Q1268.7 239.6 1255.8 228.0Q1243.0 216.4 1236.9 201.2Q1230.7 186.0 1240.4 165.5Q1250.1 144.9 1263.8 130.2Q1277.5 115.5 1294.0 121.4Q1310.5 127.3 1329.5 138.0Q1348.5 148.7 1352.1 159.7Z" fill="#4F8F5E"/><path d="M1325 128 L1371 354 L1279 354Z" fill="#4F8F5E"/></g></svg>
