<svg width="30" height="31" viewBox="0 0 30 31" xmlns="http://www.w3.org/2000/svg"><g fill="none" fill-rule="evenodd"><circle cx="-1.4" cy="23.6" r="0.9" fill="#5C5C5C" opacity="0.40"/><circle cx="0.2" cy="22.1" r="1.1" fill="#919191" opacity="0.40"/><circle cx="5.2" cy="15.1" r="1.0" fill="#919191" opacity="0.40"/><circle cx="10.1" cy="15.3" r="1.2" fill="#7A5230" opacity="0.40"/><circle cx="16.4" cy="14.9" r="1.2" fill="#7A5230" opacity="0.40"/><circle cx="21.3" cy="15.9" r="0.9" fill="#7A5230" opacity="0.40"/><circle cx="27.1" cy="12.6" r="0.9" fill="#919191" opacity="0.40"/><circle cx="31.4" cy="17.6" r="0.8" fill="#7A5230" opacity="0.40"/><circle cx="33.4" cy="25.5" r="1.0" fill="#919191" opacity="0.40"/><path d="M24.9 25.4Q26.7 29.7 24.6 33.0Q22.5 36.3 19.0 37.1Q15.5 37.9 11.3 36.4Q7.1 34.9 6.3 31.6Q5.6 28.3 6.7 24.1Q7.9 20.0 12.1 18.7Q16.2 17.5 19.6 19.4Q23.0 21.2 24.9 25.4Z" fill="#CFCFCF" opacity="0.20"/></g></svg>
