<svg width="30" height="31" viewBox="0 0 30 31" xmlns="http://www.w3.org/2000/svg"><g fill="none" fill-rule="evenodd"><circle cx="11.6" cy="26.7" r="3.1" fill="#5C5C5C" opacity="1.00"/><circle cx="12.3" cy="25.8" r="2.7" fill="#5C5C5C" opacity="1.00"/><circle cx="12.9" cy="25.2" r="3.1" fill="#919191" opacity="1.00"/><circle cx="13.7" cy="24.9" r="2.4" fill="#919191" opacity="1.00"/><circle cx="14.6" cy="24.6" r="3.1" fill="#919191" opacity="1.00"/><circle cx="15.8" cy="24.7" r="1.9" fill="#919191" opacity="1.00"/><circle cx="17.1" cy="25.2" r="2.3" fill="#7A5230" opacity="1.00"/><circle cx="18.1" cy="26.3" r="3.0" fill="#5C5C5C" opacity="1.00"/><circle cx="18.5" cy="26.9" r="2.4" fill="#919191" opacity="1.00"/><path d="M19.7 26.5Q20.3 28.2 19.3 29.9Q18.3 31.5 16.6 32.4Q14.9 33.3 13.3 32.6Q11.8 32.0 10.5 29.9Q9.1 27.7 10.1 25.9Q11.1 24.1 12.7 22.5Q14.4 20.9 16.7 22.9Q19.0 24.8 19.7 26.5Z" fill="#CFCFCF" opacity="0.80"/></g></svg>
