<svg width="1367" height="392" viewBox="0 0 1367 392" xmlns="http://www.w3.org/2000/svg"><g fill="none" fill-rule="evenodd"><rect x="0" y="332" width="1367" height="60" fill="#7a3b5c"/><path d="M0 372 L184 119 L368 372Z" fill="#8a3f66"/><path d="M184 119 L232 190 L199 180 L166 195 L136 185Z" fill="#b2587a"/><path d="M249 372 L407 185 L565 372Z" fill="#8a3f66"/><path d="M407 185 L448 237 L420 230 L391 241 L366 234Z" fill="#b2587a"/><path d="M528 372 L702 104 L875 372Z" fill="#8a3f66"/><path d="M702 104 L747 179 L716 169 L684 185 L657 174Z" fill="#b2587a"/><path d="M771 372 L912 163 L1053 372Z" fill="#8a3f66"/><path d="M912 163 L948 222 L923 213 L898 226 L875 217Z" fill="#b2587a"/><path d="M1065 372 L1267 43 L1469 372Z" fill="#8a3f66"/><path d="M1267 43 L1320 135 L1283 122 L1247 141 L1215 128Z" fill="#b2587a"/></g></svg>
