<svg width="1367" height="392" viewBox="0 0 1367 392" xmlns="http://www.w3.org/2000/svg"><g fill="none" fill-rule="evenodd"><rect x="0" y="332" width="1367" height="60" fill="#3f2449"/><rect x="17" y="297" width="6" height="71" fill="#3a2044"/><path d="M59.3 236.3Q60.5 249.5 57.9 261.0Q55.3 272.5 45.9 281.7Q36.6 291.0 20.2 289.9Q3.7 288.9 -5.6 283.7Q-14.9 278.5 -18.0 260.1Q-21.1 241.8 -16.8 235.1Q-12.5 228.4 -5.7 216.9Q1.1 205.5 18.9 209.5Q36.8 213.5 47.4 218.3Q58.0 223.0 59.3 236.3Z" fill="#4a2a55"/><rect x="72" y="295" width="6" height="51" fill="#3a2044"/><path d="M103.1 251.1Q106.7 263.5 101.5 271.6Q96.4 279.6 90.5 282.1Q84.6 284.6 75.1 284.4Q65.6 284.2 57.6 281.9Q49.5 279.6 48.9 268.3Q48.3 257.0 48.4 250.2Q48.5 243.5 58.5 235.5Q68.4 227.6 74.4 228.1Q80.5 228.7 90.0 233.7Q99.5 238.6 103.1 251.1Z" fill="#4a2a55"/><path d="M107 224 L139 354 L75 354Z" fill="#4a2a55"/><path d="M149 179 L184 350 L114 350Z" fill="#4a2a55"/><path d="M171 202 L201 338 L141 338Z" fill="#4a2a55"/><path d="M191 137 L241 352 L142 352Z" fill="#4a2a55"/><rect x="208" y="265" width="6" height="87" fill="#3a2044"/><path d="M255.3 186.4Q260.3 197.8 256.0 217.8Q251.8 237.8 236.7 243.8Q221.5 249.9 208.7 254.3Q196.0 258.7 182.4 246.2Q168.9 233.6 161.1 220.0Q153.3 206.3 163.9 191.7Q174.5 177.0 187.2 166.7Q199.8 156.4 212.3 157.6Q224.8 158.7 237.5 166.8Q250.3 175.0 255.3 186.4Z" fill="#4a2a55"/><rect x="230" y="327" width="6" height="46" fill="#3a2044"/><path d="M263.3 289.6Q267.4 298.1 263.8 306.6Q260.3 315.2 253.0 321.1Q245.6 327.0 234.7 325.6Q223.8 324.3 214.1 317.2Q204.5 310.1 200.8 303.3Q197.2 296.5 200.8 286.4Q204.4 276.3 211.4 269.5Q218.4 262.8 229.0 264.8Q239.5 266.9 249.3 274.0Q259.1 281.1 263.3 289.6Z" fill="#4a2a55"/><path d="M290 174 L325 370 L256 370Z" fill="#4a2a55"/><rect x="314" y="291" width="6" height="56" fill="#3a2044"/><path d="M344.1 244.6Q346.5 250.4 345.7 260.1Q344.9 269.8 334.4 274.7Q323.8 279.6 317.5 280.2Q311.3 280.8 303.1 276.6Q294.8 272.4 290.9 261.0Q286.9 249.6 290.4 240.8Q293.9 232.0 299.8 228.1Q305.8 224.1 316.3 224.8Q326.8 225.4 334.2 232.1Q341.7 238.8 344.1 244.6Z" fill="#4a2a55"/><path d="M340 207 L372 342 L309 342Z" fill="#4a2a55"/><rect x="364" y="297" width="6" height="63" fill="#3a2044"/><path d="M403.8 236.3Q408.4 249.2 403.0 265.8Q397.5 282.4 385.6 286.0Q373.7 289.7 360.2 291.9Q346.6 294.2 339.6 285.8Q332.6 277.5 326.8 265.1Q321.1 252.7 325.0 242.6Q329.0 232.6 342.1 223.9Q355.2 215.2 369.3 213.8Q383.4 212.4 391.3 217.9Q399.1 223.4 403.8 236.3Z" fill="#4a2a55"/><rect x="401" y="266" width="6" height="84" fill="#3a2044"/><path d="M456.5 186.8Q459.1 199.6 455.0 220.1Q450.9 240.6 432.7 253.7Q414.6 266.8 400.7 263.6Q386.9 260.3 373.3 248.7Q359.7 237.2 353.2 226.2Q346.6 215.3 354.2 195.1Q361.8 174.9 369.1 162.9Q376.5 150.9 395.2 153.3Q413.9 155.8 433.9 164.9Q453.8 174.0 456.5 186.8Z" fill="#4a2a55"/><path d="M442 213 L479 372 L405 372Z" fill="#4a2a55"/><path d="M500 96 L561 343 L439 343Z" fill="#4a2a55"/><rect x="520" y="296" width="6" height="74" fill="#3a2044"/><path d="M564.5 236.5Q564.7 250.6 562.2 257.6Q559.7 264.6 546.8 275.0Q533.8 285.4 524.1 285.4Q514.4 285.5 500.3 277.2Q486.2 268.9 483.3 254.4Q480.5 239.9 479.3 230.7Q478.1 221.5 495.0 212.9Q511.8 204.4 522.9 201.0Q534.0 197.7 549.1 210.0Q564.2 222.3 564.5 236.5Z" fill="#4a2a55"/><rect x="555" y="279" width="6" height="64" fill="#3a2044"/><path d="M595.0 226.2Q598.6 236.3 593.3 244.0Q588.1 251.8 580.5 260.4Q572.9 269.1 557.1 268.9Q541.2 268.7 534.2 266.8Q527.1 265.0 521.5 251.1Q515.9 237.1 520.0 226.9Q524.2 216.7 534.9 208.1Q545.6 199.6 558.8 197.1Q571.9 194.6 581.6 205.3Q591.4 216.0 595.0 226.2Z" fill="#4a2a55"/><rect x="576" y="291" width="6" height="64" fill="#3a2044"/><path d="M615.8 234.3Q618.8 245.8 616.0 257.7Q613.1 269.6 604.9 277.8Q596.7 286.1 583.1 288.2Q569.5 290.3 558.1 279.1Q546.7 267.9 542.5 256.4Q538.3 245.0 540.9 233.1Q543.5 221.3 555.9 211.2Q568.4 201.1 581.3 205.4Q594.2 209.6 603.5 216.2Q612.8 222.8 615.8 234.3Z" fill="#4a2a55"/><rect x="595" y="299" width="6" height="64" fill="#3a2044"/><path d="M638.8 244.2Q644.8 259.0 643.0 268.7Q641.1 278.3 628.4 288.2Q615.6 298.2 603.0 296.5Q590.5 294.9 576.1 284.7Q561.6 274.4 558.5 266.6Q555.4 258.9 554.7 244.4Q554.1 229.9 572.1 218.2Q590.1 206.5 601.3 205.9Q612.4 205.2 622.6 217.3Q632.7 229.3 638.8 244.2Z" fill="#4a2a55"/><rect x="642" y="255" width="6" height="87" fill="#3a2044"/><path d="M692.0 177.1Q699.5 195.4 690.1 210.2Q680.6 224.9 672.6 231.8Q664.5 238.7 644.8 238.3Q625.1 238.0 613.2 231.9Q601.3 225.7 594.9 210.6Q588.5 195.6 595.8 183.3Q603.0 171.0 616.4 158.6Q629.8 146.2 647.9 149.3Q666.0 152.4 675.2 155.6Q684.4 158.9 692.0 177.1Z" fill="#4a2a55"/><path d="M694 184 L740 371 L648 371Z" fill="#4a2a55"/><path d="M720 171 L755 346 L685 346Z" fill="#4a2a55"/><rect x="741" y="298" width="6" height="52" fill="#3a2044"/><path d="M774.1 253.6Q776.1 261.9 771.7 273.8Q767.2 285.7 759.2 288.6Q751.2 291.5 744.6 292.8Q738.0 294.1 729.3 287.4Q720.5 280.7 715.6 271.0Q710.8 261.3 714.2 252.1Q717.7 242.9 728.4 239.6Q739.2 236.2 745.8 233.8Q752.5 231.3 762.3 238.3Q772.1 245.4 774.1 253.6Z" fill="#4a2a55"/><path d="M770 108 L822 349 L718 349Z" fill="#4a2a55"/><path d="M829 235 L855 351 L802 351Z" fill="#4a2a55"/><rect x="884" y="309" width="6" height="55" fill="#3a2044"/><path d="M915.5 261.5Q917.2 266.5 913.8 278.6Q910.4 290.6 901.3 294.1Q892.1 297.7 886.7 297.9Q881.3 298.2 872.6 292.6Q863.9 287.0 860.2 278.1Q856.5 269.1 858.7 259.8Q860.9 250.5 870.3 244.1Q879.7 237.7 886.7 239.6Q893.6 241.5 903.7 249.0Q913.9 256.6 915.5 261.5Z" fill="#4a2a55"/><rect x="914" y="273" width="6" height="77" fill="#3a2044"/><path d="M964.8 204.6Q973.8 221.5 967.1 236.1Q960.3 250.7 949.2 263.2Q938.0 275.8 916.1 273.6Q894.2 271.4 879.4 259.1Q864.5 246.9 863.1 232.0Q861.6 217.0 871.0 200.7Q880.3 184.4 893.5 176.4Q906.7 168.3 921.9 169.3Q937.0 170.3 946.4 179.0Q955.7 187.8 964.8 204.6Z" fill="#4a2a55"/><rect x="960" y="265" width="6" height="86" fill="#3a2044"/><path d="M1015.1 188.0Q1022.5 201.8 1012.1 217.7Q1001.6 233.6 988.5 243.5Q975.4 253.5 965.2 252.6Q955.0 251.8 934.8 242.5Q914.6 233.3 911.8 220.3Q908.9 207.2 917.6 190.7Q926.2 174.2 937.8 162.2Q949.3 150.2 966.8 155.9Q984.2 161.5 996.0 167.9Q1007.7 174.2 1015.1 188.0Z" fill="#4a2a55"/><rect x="1014" y="276" width="6" height="75" fill="#3a2044"/><path d="M1059.5 214.8Q1060.6 227.1 1055.3 236.9Q1050.0 246.8 1039.6 255.1Q1029.2 263.5 1017.8 264.6Q1006.3 265.7 992.7 254.9Q979.1 244.1 978.7 232.6Q978.2 221.1 978.4 209.9Q978.7 198.7 992.2 190.8Q1005.7 183.0 1017.1 183.2Q1028.4 183.4 1043.4 193.0Q1058.5 202.5 1059.5 214.8Z" fill="#4a2a55"/><path d="M1056 226 L1079 347 L1034 347Z" fill="#4a2a55"/><rect x="1085" y="318" width="6" height="42" fill="#3a2044"/><path d="M1112.5 284.6Q1116.9 293.2 1113.0 301.4Q1109.0 309.6 1103.1 310.1Q1097.3 310.6 1089.7 311.2Q1082.1 311.7 1075.1 309.6Q1068.2 307.4 1064.6 299.5Q1061.0 291.7 1064.1 283.5Q1067.3 275.4 1075.5 270.3Q1083.7 265.3 1091.3 265.3Q1098.9 265.2 1103.5 270.6Q1108.0 276.1 1112.5 284.6Z" fill="#4a2a55"/><path d="M1137 209 L1167 349 L1108 349Z" fill="#4a2a55"/><rect x="1172" y="255" width="6" height="89" fill="#3a2044"/><path d="M1228.1 174.4Q1232.9 185.9 1228.1 209.6Q1223.2 233.3 1212.2 241.2Q1201.3 249.2 1176.9 246.8Q1152.6 244.5 1141.0 232.7Q1129.5 220.9 1122.8 203.2Q1116.2 185.5 1125.1 169.3Q1133.9 153.1 1144.8 146.1Q1155.8 139.0 1171.2 137.9Q1186.6 136.7 1204.9 149.8Q1223.2 162.9 1228.1 174.4Z" fill="#4a2a55"/><rect x="1215" y="296" width="6" height="78" fill="#3a2044"/><path d="M1259.8 231.8Q1262.4 246.2 1258.5 256.6Q1254.6 267.1 1241.2 275.3Q1227.7 283.5 1214.7 281.4Q1201.7 279.3 1188.8 271.2Q1176.0 263.1 1174.5 253.3Q1173.0 243.6 1179.4 227.8Q1185.9 212.0 1195.5 202.7Q1205.2 193.4 1220.7 198.2Q1236.1 203.1 1246.6 210.3Q1257.2 217.4 1259.8 231.8Z" fill="#4a2a55"/><path d="M1270 207 L1299 362 L1240 362Z" fill="#4a2a55"/><path d="M1303 100 L1350 348 L1257 348Z" fill="#4a2a55"/></g></svg>
