<svg width="192" height="32" viewBox="0 0 192 32" xmlns="http://www.w3.org/2000/svg"><g fill="none" fill-rule="evenodd"><rect x="0" y="6" width="192" height="26" fill="#d9b06a"/><rect x="0" y="4" width="192" height="6" fill="#e8c77f"/><rect x="0" y="9" width="192" height="2" fill="#d2a95c"/><ellipse cx="48.8" cy="22.6" rx="2.1" ry="1.6" fill="#b88a4a"/><ellipse cx="110.6" cy="23.5" rx="2.9" ry="1.5" fill="#b88a4a"/><ellipse cx="48.2" cy="28.9" rx="2.2" ry="1.8" fill="#e9cf95"/><ellipse cx="77.5" cy="27.1" rx="1.8" ry="1.2" fill="#b88a4a"/><ellipse cx="76.2" cy="15.2" rx="2.7" ry="1.2" fill="#b88a4a"/><ellipse cx="13.7" cy="25.9" rx="2.7" ry="1.3" fill="#b88a4a"/><ellipse cx="135.4" cy="27.3" rx="2.6" ry="1.9" fill="#e9cf95"/><ellipse cx="137.1" cy="23.1" rx="2.9" ry="1.1" fill="#e9cf95"/><ellipse cx="23.5" cy="16.9" rx="1.8" ry="2.0" fill="#e9cf95"/><ellipse cx="146.2" cy="27.0" rx="2.1" ry="1.8" fill="#b88a4a"/><ellipse cx="69.2" cy="23.2" rx="2.4" ry="1.9" fill="#b88a4a"/><ellipse cx="170.8" cy="15.4" rx="1.9" ry="1.6" fill="#b88a4a"/><ellipse cx="35.4" cy="27.0" rx="2.9" ry="1.9" fill="#b88a4a"/><ellipse cx="24.7" cy="24.2" rx="2.4" ry="2.0" fill="#e9cf95"/></g></svg>
